<svg width="40" height="40" viewBox="0 0 40 40" fill="none" xmlns="http://www.w3.org/2000/svg">
<g clip-path="url(#clip0_23_2)">
<rect width="40" height="40" fill="#2F3661"/>
<g filter="url(#filter0_dddddd_23_2)">
<path d="M37.9365 17.3404C37.741 17.8638 37.0963 18.3732 36.0394 18.8397C34.9824 19.3061 33.5339 19.7204 31.7765 20.0589C30.019 20.3973 27.9872 20.6534 25.7968 20.8124C23.6065 20.9714 21.3006 21.0302 19.0108 20.9855C16.721 20.9408 14.4921 20.7934 12.4515 20.5519C10.4108 20.3103 8.59834 19.9792 7.11749 19.5775C5.63665 19.1758 4.51645 18.7114 3.82086 18.2107C3.12527 17.7101 2.86791 17.183 3.06348 16.6596L4.7332 16.6922C4.55636 17.1655 4.78907 17.6421 5.41805 18.0948C6.04703 18.5475 7.05996 18.9674 8.399 19.3307C9.73804 19.6939 11.377 19.9933 13.2222 20.2117C15.0675 20.4302 17.0829 20.5634 19.1534 20.6038C21.2239 20.6443 23.309 20.5911 25.2896 20.4473C27.2702 20.3035 29.1075 20.072 30.6966 19.7659C32.2858 19.4599 33.5956 19.0853 34.5513 18.6635C35.507 18.2417 36.09 17.7811 36.2668 17.3078L37.9365 17.3404Z" fill="#EBEFF3"/>
</g>
<path d="M23 16V11.9231L23.5 11L24 12V17.5" stroke="#768692" stroke-width="0.4"/>
<path d="M18 16V11.9231L17.5 11L17 12V17.5" stroke="#768692" stroke-width="0.4"/>
<path d="M17 30.5L17 18L20.5 9L24 18V30.5H17Z" fill="#6C7A84"/>
<path d="M17 30.5C17 21.1651 17 18 17 18M17 30.5H24M17 30.5L17 18M17 18L20.5 9L24 18M24 18C24 18 24 21.1274 24 30.5M24 18V30.5" stroke="#6C7A84"/>
<g filter="url(#filter1_dddddd_23_2)">
<path d="M3.06348 16.6596C3.25904 16.1362 3.9037 15.6268 4.96065 15.1603C6.01759 14.6939 7.46612 14.2796 9.22354 13.9411C10.981 13.6027 13.0128 13.3466 15.2032 13.1876C17.3935 13.0286 19.6994 12.9698 21.9892 13.0145C24.279 13.0592 26.5079 13.2066 28.5485 13.4481C30.5892 13.6897 32.4017 14.0208 33.8825 14.4225C35.3634 14.8242 36.4835 15.2886 37.1791 15.7893C37.8747 16.2899 38.1321 16.817 37.9365 17.3404L36.2668 17.3078C36.4436 16.8345 36.2109 16.3579 35.5819 15.9052C34.953 15.4525 33.94 15.0326 32.601 14.6693C31.262 14.3061 29.623 14.0067 27.7778 13.7883C25.9325 13.5698 23.9171 13.4366 21.8466 13.3962C19.7761 13.3557 17.691 13.4089 15.7104 13.5527C13.7298 13.6965 11.8925 13.928 10.3034 14.2341C8.71425 14.5401 7.40443 14.9147 6.44869 15.3365C5.49296 15.7583 4.91003 16.2189 4.7332 16.6922L3.06348 16.6596Z" fill="url(#paint0_linear_23_2)"/>
</g>
</g>
<defs>
<filter id="filter0_dddddd_23_2" x="-153.24" y="-139.58" width="347.417" height="316.82" filterUnits="userSpaceOnUse" color-interpolation-filters="sRGB">
<feFlood flood-opacity="0" result="BackgroundImageFix"/>
<feColorMatrix in="SourceAlpha" type="matrix" values="0 0 0 0 0 0 0 0 0 0 0 0 0 0 0 0 0 0 127 0" result="hardAlpha"/>
<feOffset/>
<feGaussianBlur stdDeviation="1.86"/>
<feColorMatrix type="matrix" values="0 0 0 0 0.921569 0 0 0 0 0.937255 0 0 0 0 0.952941 0 0 0 1 0"/>
<feBlend mode="normal" in2="BackgroundImageFix" result="effect1_dropShadow_23_2"/>
<feColorMatrix in="SourceAlpha" type="matrix" values="0 0 0 0 0 0 0 0 0 0 0 0 0 0 0 0 0 0 127 0" result="hardAlpha"/>
<feOffset/>
<feGaussianBlur stdDeviation="3.72"/>
<feColorMatrix type="matrix" values="0 0 0 0 0.921569 0 0 0 0 0.937255 0 0 0 0 0.952941 0 0 0 1 0"/>
<feBlend mode="normal" in2="effect1_dropShadow_23_2" result="effect2_dropShadow_23_2"/>
<feColorMatrix in="SourceAlpha" type="matrix" values="0 0 0 0 0 0 0 0 0 0 0 0 0 0 0 0 0 0 127 0" result="hardAlpha"/>
<feOffset/>
<feGaussianBlur stdDeviation="13.02"/>
<feColorMatrix type="matrix" values="0 0 0 0 0.921569 0 0 0 0 0.937255 0 0 0 0 0.952941 0 0 0 1 0"/>
<feBlend mode="normal" in2="effect2_dropShadow_23_2" result="effect3_dropShadow_23_2"/>
<feColorMatrix in="SourceAlpha" type="matrix" values="0 0 0 0 0 0 0 0 0 0 0 0 0 0 0 0 0 0 127 0" result="hardAlpha"/>
<feOffset/>
<feGaussianBlur stdDeviation="26.04"/>
<feColorMatrix type="matrix" values="0 0 0 0 0.921569 0 0 0 0 0.937255 0 0 0 0 0.952941 0 0 0 1 0"/>
<feBlend mode="normal" in2="effect3_dropShadow_23_2" result="effect4_dropShadow_23_2"/>
<feColorMatrix in="SourceAlpha" type="matrix" values="0 0 0 0 0 0 0 0 0 0 0 0 0 0 0 0 0 0 127 0" result="hardAlpha"/>
<feOffset/>
<feGaussianBlur stdDeviation="44.64"/>
<feColorMatrix type="matrix" values="0 0 0 0 0.921569 0 0 0 0 0.937255 0 0 0 0 0.952941 0 0 0 1 0"/>
<feBlend mode="normal" in2="effect4_dropShadow_23_2" result="effect5_dropShadow_23_2"/>
<feColorMatrix in="SourceAlpha" type="matrix" values="0 0 0 0 0 0 0 0 0 0 0 0 0 0 0 0 0 0 127 0" result="hardAlpha"/>
<feOffset/>
<feGaussianBlur stdDeviation="78.12"/>
<feColorMatrix type="matrix" values="0 0 0 0 0.921569 0 0 0 0 0.937255 0 0 0 0 0.952941 0 0 0 1 0"/>
<feBlend mode="normal" in2="effect5_dropShadow_23_2" result="effect6_dropShadow_23_2"/>
<feBlend mode="normal" in="SourceGraphic" in2="effect6_dropShadow_23_2" result="shape"/>
</filter>
<filter id="filter1_dddddd_23_2" x="-153.177" y="-143.24" width="347.417" height="316.82" filterUnits="userSpaceOnUse" color-interpolation-filters="sRGB">
<feFlood flood-opacity="0" result="BackgroundImageFix"/>
<feColorMatrix in="SourceAlpha" type="matrix" values="0 0 0 0 0 0 0 0 0 0 0 0 0 0 0 0 0 0 127 0" result="hardAlpha"/>
<feOffset/>
<feGaussianBlur stdDeviation="1.86"/>
<feColorMatrix type="matrix" values="0 0 0 0 1 0 0 0 0 1 0 0 0 0 1 0 0 0 1 0"/>
<feBlend mode="normal" in2="BackgroundImageFix" result="effect1_dropShadow_23_2"/>
<feColorMatrix in="SourceAlpha" type="matrix" values="0 0 0 0 0 0 0 0 0 0 0 0 0 0 0 0 0 0 127 0" result="hardAlpha"/>
<feOffset/>
<feGaussianBlur stdDeviation="3.72"/>
<feColorMatrix type="matrix" values="0 0 0 0 1 0 0 0 0 1 0 0 0 0 1 0 0 0 1 0"/>
<feBlend mode="normal" in2="effect1_dropShadow_23_2" result="effect2_dropShadow_23_2"/>
<feColorMatrix in="SourceAlpha" type="matrix" values="0 0 0 0 0 0 0 0 0 0 0 0 0 0 0 0 0 0 127 0" result="hardAlpha"/>
<feOffset/>
<feGaussianBlur stdDeviation="13.02"/>
<feColorMatrix type="matrix" values="0 0 0 0 1 0 0 0 0 1 0 0 0 0 1 0 0 0 1 0"/>
<feBlend mode="normal" in2="effect2_dropShadow_23_2" result="effect3_dropShadow_23_2"/>
<feColorMatrix in="SourceAlpha" type="matrix" values="0 0 0 0 0 0 0 0 0 0 0 0 0 0 0 0 0 0 127 0" result="hardAlpha"/>
<feOffset/>
<feGaussianBlur stdDeviation="26.04"/>
<feColorMatrix type="matrix" values="0 0 0 0 1 0 0 0 0 1 0 0 0 0 1 0 0 0 1 0"/>
<feBlend mode="normal" in2="effect3_dropShadow_23_2" result="effect4_dropShadow_23_2"/>
<feColorMatrix in="SourceAlpha" type="matrix" values="0 0 0 0 0 0 0 0 0 0 0 0 0 0 0 0 0 0 127 0" result="hardAlpha"/>
<feOffset/>
<feGaussianBlur stdDeviation="44.64"/>
<feColorMatrix type="matrix" values="0 0 0 0 1 0 0 0 0 1 0 0 0 0 1 0 0 0 1 0"/>
<feBlend mode="normal" in2="effect4_dropShadow_23_2" result="effect5_dropShadow_23_2"/>
<feColorMatrix in="SourceAlpha" type="matrix" values="0 0 0 0 0 0 0 0 0 0 0 0 0 0 0 0 0 0 127 0" result="hardAlpha"/>
<feOffset/>
<feGaussianBlur stdDeviation="78.12"/>
<feColorMatrix type="matrix" values="0 0 0 0 1 0 0 0 0 1 0 0 0 0 1 0 0 0 1 0"/>
<feBlend mode="normal" in2="effect5_dropShadow_23_2" result="effect6_dropShadow_23_2"/>
<feBlend mode="normal" in="SourceGraphic" in2="effect6_dropShadow_23_2" result="shape"/>
</filter>
<linearGradient id="paint0_linear_23_2" x1="4.12903" y1="17" x2="36.871" y2="17" gradientUnits="userSpaceOnUse">
<stop stop-color="#EBEFF3"/>
<stop offset="0.5" stop-color="#EBEFF3"/>
<stop offset="1" stop-color="#EBEFF3"/>
</linearGradient>
<clipPath id="clip0_23_2">
<rect width="40" height="40" fill="white"/>
</clipPath>
</defs>
</svg>
