<svg width="40" height="40" viewBox="0 0 40 40" fill="none" xmlns="http://www.w3.org/2000/svg">
<path d="M35.4938 28.4517C34.9926 29.0039 34.1001 29.3351 32.8672 29.4263C31.6342 29.5174 30.085 29.3668 28.308 28.983C26.531 28.5993 24.5609 27.9898 22.5104 27.1895C20.4598 26.3892 18.3688 25.4136 16.3569 24.3186C14.345 23.2236 12.4514 22.0305 10.7844 20.8075C9.11743 19.5846 7.70959 18.3556 6.64131 17.1908C5.57303 16.026 4.86521 14.9482 4.55829 14.0189C4.25136 13.0897 4.35133 12.3271 4.85249 11.7749L6.31959 12.5734C5.86643 13.0727 5.77603 13.7622 6.05356 14.6025C6.3311 15.4428 6.97113 16.4174 7.93712 17.4706C8.9031 18.5239 10.1761 19.6352 11.6835 20.7411C13.1909 21.847 14.9031 22.9258 16.7223 23.9159C18.5416 24.9061 20.4323 25.7882 22.2865 26.5119C24.1408 27.2355 25.9221 27.7866 27.529 28.1337C29.1359 28.4807 30.5367 28.6169 31.6516 28.5345C32.7665 28.452 33.5735 28.1526 34.0267 27.6532L35.4938 28.4517Z" fill="#2F3661"/>
<path d="M4.85245 11.7749C5.35361 11.2226 6.24614 10.8915 7.47908 10.8003C8.71202 10.7091 10.2612 10.8597 12.0383 11.2435C13.8153 11.6273 15.7853 12.2368 17.8359 13.0371C19.8865 13.8374 21.9774 14.8129 23.9894 15.9079C26.0013 17.0029 27.8948 18.196 29.5618 19.419C31.2288 20.642 32.6367 21.871 33.7049 23.0358C34.7732 24.2006 35.481 25.2784 35.788 26.2076C36.0949 27.1369 35.9949 27.8994 35.4938 28.4517L34.0267 27.6532C34.4798 27.1538 34.5702 26.4643 34.2927 25.624C34.0152 24.7838 33.3751 23.8092 32.4091 22.7559C31.4432 21.7027 30.1701 20.5914 28.6628 19.4855C27.1554 18.3796 25.4432 17.3008 23.6239 16.3106C21.8046 15.3205 19.9139 14.4384 18.0597 13.7147C16.2055 12.991 14.4241 12.4399 12.8173 12.0929C11.2104 11.7458 9.80954 11.6097 8.69466 11.6921C7.57978 11.7745 6.77272 12.074 6.31955 12.5734L4.85245 11.7749Z" fill="#2F3661"/>
</svg>
